<svg xmlns="http://www.w3.org/2000/svg" viewBox="0 0 33.39 41.74"><defs><style>.cls-1{fill:#fff;}.cls-2{fill:blue;}</style></defs><g id="Слой_2" data-name="Слой 2"><g id="Слой_1-2" data-name="Слой 1"><ellipse class="cls-1" cx="17.42" cy="20.87" rx="13.77" ry="19.41"/><path class="cls-2" d="M18.54,13.67c0,1.86,0,3.41,0,3.46a17.82,17.82,0,0,0,1.87-1.64l1.87-1.72L20.41,12,18.52,10.3l0,3.37Z"/><path class="cls-2" d="M18.55,26.24c0,1,0,2.51,0,3.47l0,1.74,1.88-1.72c1-.95,1.88-1.75,1.88-1.77s-.83-.81-1.85-1.75l-1.85-1.7v1.73Z"/><path class="cls-2" d="M15.35,0A16.09,16.09,0,0,0,6.67,2.5,12.22,12.22,0,0,0,3.38,5.74,22.74,22.74,0,0,0,.21,15.8,37.49,37.49,0,0,0,0,20.86c0,1.76,0,2.94.06,3.46.41,5.35,1.63,9.42,3.66,12.14a12.48,12.48,0,0,0,2.44,2.43,14.75,14.75,0,0,0,4.09,2,26.55,26.55,0,0,0,10.7.5A14,14,0,0,0,26.3,39.5a12.31,12.31,0,0,0,4.79-5.43,28.61,28.61,0,0,0,2.24-9.75c.08-1.08.08-5.87,0-6.93A31.3,31.3,0,0,0,31.86,9.6,12.9,12.9,0,0,0,26.3,2.23a15.91,15.91,0,0,0-8-2.19C17.58,0,16,0,15.35,0ZM23.1,17.3l-3.88,3.56,3.88,3.57L27,28l-5.89,5.41-5.88,5.41V24.59l-3.22,3-3.21,3L7.59,29.43,6.41,28.34l4.07-3.74,4.06-3.74-4.06-3.73L6.41,13.39,7.59,12.3l1.19-1.09,3.21,3,3.22,3V2.91l5.88,5.41L27,13.73,23.1,17.3Z"/></g></g></svg>