<svg xmlns="http://www.w3.org/2000/svg" viewBox="0 0 85.6 85.6"><defs><style>.cls-1{fill:#7f7f7f;}</style></defs><g id="Слой_2" data-name="Слой 2"><g id="Слой_1-2" data-name="Слой 1"><path class="cls-1" d="M14.36,13.93a2.47,2.47,0,0,0-1.47,2.3c0,1,.11,1.17,2.89,3.95l2.5,2.51-2.55,2.56c-2.84,2.84-3,3-3,4.05a2.55,2.55,0,0,0,3.41,2.38c.4-.14.77-.47,3-2.73,1.42-1.41,2.63-2.57,2.68-2.57s1.19,1.11,2.53,2.46c2.77,2.79,2.92,2.9,4,2.9a2.39,2.39,0,0,0,2.28-1.42,2.8,2.8,0,0,0,0-2.18A25.77,25.77,0,0,0,28,25.21l-2.51-2.52,2.46-2.46a27.2,27.2,0,0,0,2.67-2.89,2.7,2.7,0,0,0,0-2.14A2.61,2.61,0,0,0,27.18,14a23.33,23.33,0,0,0-2.85,2.64L21.88,19.1l-2.53-2.53c-2.23-2.21-2.6-2.54-3-2.67a3.07,3.07,0,0,0-2,0Z"/><path class="cls-1" d="M54.41,16.56a2.29,2.29,0,0,0-1.28,1.16,1.82,1.82,0,0,0-.23,1,2.69,2.69,0,0,0,.15.84,2.8,2.8,0,0,0,1.06,1.15l.34.17h8.82c9.92,0,9,.06,9.73-.63a2.15,2.15,0,0,0,0-3.13c-.74-.74,0-.69-9.71-.68-7,0-8.57,0-8.87.12Z"/><path class="cls-1" d="M54.34,24.78A3,3,0,0,0,53.09,26a1.79,1.79,0,0,0-.18.92,2.13,2.13,0,0,0,1.24,2l.46.22H71.93l.4-.18a2.09,2.09,0,0,0,1.09-1,2.42,2.42,0,0,0,0-2,2.22,2.22,0,0,0-1-1.05L72,24.68H63.31c-5.9,0-8.79,0-9,.09Z"/><path class="cls-1" d="M21,54.94A2.21,2.21,0,0,0,20,56l-.2.38,0,3.18,0,3.17-3.25,0c-3.62,0-3.52,0-4.13.6a2,2,0,0,0-.63,1.58,2.1,2.1,0,0,0,1.23,2c.36.19.38.19,3.57.21l3.21,0,0,3.21c0,3.6,0,3.44.65,4.11a2.14,2.14,0,0,0,3.06,0c.65-.67.62-.51.65-4.11l0-3.21,3.13,0,3.13,0,.41-.22A2.08,2.08,0,0,0,32,64.89a2,2,0,0,0-.6-1.56c-.59-.59-.55-.59-4.06-.63l-3.16-.05,0-3.15c0-3.1,0-3.16-.22-3.53a2.09,2.09,0,0,0-2-1.18,2.16,2.16,0,0,0-.89.15Z"/><path class="cls-1" d="M54.35,62.79A2.84,2.84,0,0,0,53.09,64a2.12,2.12,0,0,0-.19.92,2.23,2.23,0,0,0,1.62,2.16c.38.11,1.51.13,9,.11l8.53,0,.41-.22a2.25,2.25,0,0,0,0-4L72,62.68H63.32c-5.91,0-8.79,0-9,.1Z"/><path class="cls-1" d="M77.46,85.6H8.15A8.16,8.16,0,0,1,0,77.45V8.15A8.16,8.16,0,0,1,8.15,0H77.46A8.16,8.16,0,0,1,85.6,8.15v69.3A8.15,8.15,0,0,1,77.46,85.6ZM8.15,3.67A4.49,4.49,0,0,0,3.67,8.15v69.3a4.49,4.49,0,0,0,4.48,4.49H77.46a4.49,4.49,0,0,0,4.48-4.49V8.15a4.49,4.49,0,0,0-4.48-4.48Z"/><path class="cls-1" d="M36.49,85.6H8.15A8.16,8.16,0,0,1,0,77.45V49.12A8.16,8.16,0,0,1,8.15,41H36.49a8.16,8.16,0,0,1,8.15,8.15V77.45A8.16,8.16,0,0,1,36.49,85.6Zm-28.34-41a4.48,4.48,0,0,0-4.48,4.48V77.45a4.49,4.49,0,0,0,4.48,4.49H36.49A4.49,4.49,0,0,0,41,77.45V49.12a4.48,4.48,0,0,0-4.48-4.48Z"/><path class="cls-1" d="M77.46,85.6H49.12A8.16,8.16,0,0,1,41,77.45V49.12A8.16,8.16,0,0,1,49.12,41H77.46a8.15,8.15,0,0,1,8.14,8.15V77.45A8.15,8.15,0,0,1,77.46,85.6Zm-28.34-41a4.48,4.48,0,0,0-4.48,4.48V77.45a4.49,4.49,0,0,0,4.48,4.49H77.46a4.49,4.49,0,0,0,4.48-4.49V49.12a4.48,4.48,0,0,0-4.48-4.48Z"/><path class="cls-1" d="M36.49,44.64H8.15A8.17,8.17,0,0,1,0,36.48V8.15A8.16,8.16,0,0,1,8.15,0H36.49a8.16,8.16,0,0,1,8.15,8.15V36.48A8.17,8.17,0,0,1,36.49,44.64ZM8.15,3.67A4.49,4.49,0,0,0,3.67,8.15V36.48A4.49,4.49,0,0,0,8.15,41H36.49A4.49,4.49,0,0,0,41,36.48V8.15a4.49,4.49,0,0,0-4.48-4.48Z"/><path class="cls-1" d="M77.46,44.64H49.12A8.17,8.17,0,0,1,41,36.48V8.15A8.16,8.16,0,0,1,49.12,0H77.46A8.16,8.16,0,0,1,85.6,8.15V36.48A8.16,8.16,0,0,1,77.46,44.64Zm-28.34-41a4.49,4.49,0,0,0-4.48,4.48V36.48A4.49,4.49,0,0,0,49.12,41H77.46a4.49,4.49,0,0,0,4.48-4.49V8.15a4.49,4.49,0,0,0-4.48-4.48Z"/></g></g></svg>