<svg xmlns="http://www.w3.org/2000/svg" viewBox="0 0 55.2 63.1"><defs><style>.cls-1{fill:#7f7f7f;}</style></defs><g id="Слой_2" data-name="Слой 2"><g id="Слой_1-2" data-name="Слой 1"><path class="cls-1" d="M9.5,1.22a26.49,26.49,0,0,1,2.19,6.89c.7,3.62.41,11.32.41,11.32H5.48s-.17-6.5,0-8A34.73,34.73,0,0,1,6.86,4.05,16.69,16.69,0,0,1,8.8,0a5.88,5.88,0,0,1,.7,1.22Zm2.58,20.59.15.93a12.9,12.9,0,0,0,3,6.77l.52.57,0,14.07,0,14.06L9,58.23l-6.75,0,0-12.71c0-7,0-13.43.07-14.3.06-1.58.06-1.61.29-1.82a14.81,14.81,0,0,0,2.11-3.53,13.78,13.78,0,0,0,.57-2.95,5.18,5.18,0,0,1,.17-1.08s3.14-.05,6.6-.05Z"/><rect class="cls-1" x="1.29" y="60.68" width="15.45" height="2.43"/><path class="cls-1" d="M2.58,61.89A1.25,1.25,0,0,1,1.29,63.1a1.21,1.21,0,1,1,0-2.42A1.25,1.25,0,0,1,2.58,61.89Z"/><path class="cls-1" d="M18,61.89a1.29,1.29,0,1,1-1.29-1.21A1.25,1.25,0,0,1,18,61.89Z"/><path class="cls-1" d="M28.08,1.22a26.12,26.12,0,0,1,2.19,6.89c.71,3.62.42,11.32.42,11.32H24.07s-.17-6.5,0-8a34.19,34.19,0,0,1,1.4-7.42,16.59,16.59,0,0,1,1.95-4,6.12,6.12,0,0,1,.69,1.22Zm2.59,20.59.15.93a12.83,12.83,0,0,0,3,6.77l.51.57,0,14.07,0,14.06-6.74,0-6.74,0V45.54c0-7,0-13.43.07-14.3.07-1.58.07-1.61.29-1.82a14.81,14.81,0,0,0,2.12-3.53,13.2,13.2,0,0,0,.56-2.95,5.67,5.67,0,0,1,.18-1.08s3.14-.05,6.6-.05Z"/><rect class="cls-1" x="19.88" y="60.68" width="15.45" height="2.43"/><path class="cls-1" d="M21.16,61.89a1.29,1.29,0,1,1-1.28-1.21A1.25,1.25,0,0,1,21.16,61.89Z"/><path class="cls-1" d="M36.62,61.89a1.29,1.29,0,1,1-1.29-1.21A1.25,1.25,0,0,1,36.62,61.89Z"/><path class="cls-1" d="M46.67,1.22a26.49,26.49,0,0,1,2.19,6.89c.7,3.62.41,11.32.41,11.32H42.65s-.17-6.5,0-8A34.19,34.19,0,0,1,44,4.05,16.69,16.69,0,0,1,46,0a5.41,5.41,0,0,1,.7,1.22Zm2.59,20.59.14.93a12.9,12.9,0,0,0,3,6.77l.52.57,0,14.07,0,14.06-6.73,0-6.74,0V45.54c0-7,0-13.43.07-14.3.07-1.58.07-1.61.29-1.82a14.81,14.81,0,0,0,2.11-3.53,13.78,13.78,0,0,0,.57-2.95,7.2,7.2,0,0,1,.17-1.08s3.15-.05,6.61-.05Z"/><rect class="cls-1" x="38.46" y="60.68" width="15.45" height="2.43"/><path class="cls-1" d="M39.75,61.89a1.29,1.29,0,1,1-1.29-1.21A1.25,1.25,0,0,1,39.75,61.89Z"/><path class="cls-1" d="M55.2,61.89a1.29,1.29,0,1,1-1.29-1.21A1.25,1.25,0,0,1,55.2,61.89Z"/></g></g></svg>