<svg xmlns="http://www.w3.org/2000/svg" viewBox="0 0 49.3 49.31"><defs><style>.cls-1{fill:red;stroke-miterlimit:10;}.cls-1,.cls-2{stroke:#fff;}.cls-2{fill:#7f7f7f;stroke-linecap:round;stroke-linejoin:round;stroke-width:2px;}</style></defs><g id="Слой_2" data-name="Слой 2"><g id="Слой_1-2" data-name="Слой 1"><polyline class="cls-1" points="35.8 13.58 30.33 30.29 29.03 29.09 19.07 19.14"/><path class="cls-2" d="M26,48.28a26.12,26.12,0,0,0,3.41-.45A24.33,24.33,0,0,0,39,43.43a33.3,33.3,0,0,0,3.83-3.69,24.5,24.5,0,0,0,5-10.57A23.64,23.64,0,0,0,4.72,12a23.6,23.6,0,0,0-1.3,23.11,24.2,24.2,0,0,0,2.26,3.72,32.09,32.09,0,0,0,4.44,4.54,30,30,0,0,0,2.82,1.88,23.65,23.65,0,0,0,11.8,3.11l1.24,0ZM12.2,37c0-.16,6.17-18.62,6.23-18.65L37.08,12.2,30.94,30.87Z"/></g></g></svg>