<svg xmlns="http://www.w3.org/2000/svg" viewBox="0 0 41.49 64.07"><defs><style>.cls-1{fill:blue;}</style></defs><g id="Слой_2" data-name="Слой 2"><g id="Слой_1-2" data-name="Слой 1"><path class="cls-1" d="M41.26,39.21c-1-6-5.58-19.44-13.42-30.38C25.73,5.89,21.6.51,21.14.11A.52.52,0,0,0,20.85,0a.49.49,0,0,0-.29.11c-.49.42-4.67,5.88-6.92,9C5.92,20,1.24,33.29.22,39.26a20.58,20.58,0,0,0,.46,8.12,22.54,22.54,0,0,0,8.63,13A19.46,19.46,0,0,0,27,63a20.32,20.32,0,0,0,5.92-3.23,30.39,30.39,0,0,0,3.43-3.38A23.27,23.27,0,0,0,41.26,45,18.56,18.56,0,0,0,41.26,39.21Zm-5.6,4.34A17.91,17.91,0,0,1,32.1,52.2a21.53,21.53,0,0,1-2.49,2.56,15,15,0,0,1-4.3,2.45,13.72,13.72,0,0,1-12.88-2,17.08,17.08,0,0,1-6.28-9.82,16.55,16.55,0,0,1-.33-6.15C6.56,34.7,10,24.61,15.58,16.43c1.64-2.38,4.67-6.51,5-6.83a.32.32,0,0,1,.42,0c.34.3,3.34,4.37,4.87,6.6a66.13,66.13,0,0,1,9.76,23A14.52,14.52,0,0,1,35.66,43.55Z"/></g></g></svg>