<svg xmlns="http://www.w3.org/2000/svg" viewBox="0 0 49.45 49.42"><defs><style>.cls-1{fill:#7f7f7f;stroke:#7f7f7f;stroke-miterlimit:10;}</style></defs><g id="Слой_2" data-name="Слой 2"><g id="Слой_1-2" data-name="Слой 1"><path class="cls-1" d="M22.78.58A24.2,24.2,0,0,0,4.13,37.47a24.52,24.52,0,0,0,9,8.5,24.19,24.19,0,0,0,23.17,0,24.57,24.57,0,0,0,9-8.5A24.21,24.21,0,0,0,22.78.58Zm.95,7v5h-3.9c-3.22,0-3.9,0-3.9-.14A23.15,23.15,0,0,1,17.31,9a14.38,14.38,0,0,1,4.35-5.5,7.33,7.33,0,0,1,1.92-.86C23.69,2.63,23.73,3.68,23.73,7.62Zm2.81-4.74c2,.75,4.08,3,5.56,6.11a23.93,23.93,0,0,1,1.37,3.47c0,.12-.67.14-3.89.14h-3.9v-5c0-3.19,0-5,.1-5A3.75,3.75,0,0,1,26.54,2.88ZM18.13,4a21.91,21.91,0,0,0-3.9,7.23l-.47,1.35H10c-2.07,0-3.78,0-3.78-.08A21.16,21.16,0,0,1,9,9a22,22,0,0,1,8.59-5.38l1-.34A3.71,3.71,0,0,1,18.13,4Zm14.77.09a22.52,22.52,0,0,1,7.94,5.37,25.23,25.23,0,0,1,2.42,3.06s-1.7.08-3.77.08H35.71l-.47-1.35A22.3,22.3,0,0,0,31.34,4l-.59-.67.51.14C31.53,3.57,32.26,3.84,32.9,4.09ZM13.18,14.69s-.1.62-.25,1.28a56.51,56.51,0,0,0-.84,7.55c0,.16-.2.18-4.78.18H2.51l.06-.76a28.8,28.8,0,0,1,.8-4.39,27.79,27.79,0,0,1,1.38-3.63l.16-.29H9C11.31,14.65,13.18,14.67,13.18,14.69Zm10.55,4.5v4.53H14.17V23A44.63,44.63,0,0,1,15,16c.12-.62.24-1.17.24-1.21s1.91-.07,4.25-.07h4.25l0,4.52Zm10.44-4.48s.11.6.25,1.22A42.64,42.64,0,0,1,35.26,23v.72H25.7v-9H30C32.26,14.65,34.17,14.67,34.17,14.71Zm10.51.23a27,27,0,0,1,1.37,3.63,25.2,25.2,0,0,1,.8,4.39l.07.76H42.13c-4.59,0-4.78,0-4.78-.18A56.15,56.15,0,0,0,36.51,16c-.14-.68-.24-1.25-.24-1.28s1.86,0,4.14,0h4.12ZM12.09,25.88a56.15,56.15,0,0,0,.84,7.55c.15.68.25,1.25.25,1.27s-1.87,0-4.14,0H4.91l-.16-.29a27.25,27.25,0,0,1-1.38-3.63,26.17,26.17,0,0,1-.8-4.39l-.06-.76H7.29C11.89,25.69,12.09,25.71,12.09,25.88Zm11.64,4.35v4.53H19.48c-2.32,0-4.25,0-4.25-.08s-.1-.57-.24-1.21a42.73,42.73,0,0,1-.84-7.08v-.72h9.56l0,4.56Zm11.53-3.82a45,45,0,0,1-.84,7.08c-.12.62-.25,1.17-.25,1.21s-1.91.08-4.25.08H25.68V25.71h9.56l0,.7Zm11.59,0a27,27,0,0,1-.8,4.39,26,26,0,0,1-1.37,3.63l-.17.29H40.39c-2.28,0-4.15,0-4.15,0s.11-.61.25-1.27a56.51,56.51,0,0,0,.84-7.55c0-.17.21-.19,4.78-.19h4.78ZM14.21,38.19a21.85,21.85,0,0,0,3.9,7.22l.59.68L18.19,46a27.41,27.41,0,0,1-3.74-1.54A24.15,24.15,0,0,1,8.58,40a25.34,25.34,0,0,1-2.42-3s1.71-.09,3.78-.09h3.77Zm9.52,3.63c0,3.18,0,5-.1,5a5,5,0,0,1-.74-.25c-2-.76-4.09-3-5.56-6.11A23.58,23.58,0,0,1,16,37c0-.12.68-.15,3.9-.15h3.9v5ZM33.5,37a23.58,23.58,0,0,1-1.38,3.47A14.48,14.48,0,0,1,27.77,46a8,8,0,0,1-1.95.86c-.06,0-.1-1.81-.1-5v-5h3.9C32.82,36.83,33.5,36.86,33.5,37Zm9.74-.06A22.36,22.36,0,0,1,35,44.41,26.3,26.3,0,0,1,31.22,46l-.52.14.6-.68a22.63,22.63,0,0,0,3.9-7.22l.47-1.36h3.78A36.28,36.28,0,0,1,43.24,36.92Z"/></g></g></svg>