<svg xmlns="http://www.w3.org/2000/svg" viewBox="0 0 54.74 53.51"><defs><style>.cls-1{fill:blue;}</style></defs><g id="Слой_2" data-name="Слой 2"><g id="Слой_1-2" data-name="Слой 1"><path class="cls-1" d="M8.55,47.19l2.38-2.39a24,24,0,1,1,32.88,0l2.38,2.39a27.37,27.37,0,1,0-37.64,0Z"/><path class="cls-1" d="M32.3,39.71a4.65,4.65,0,0,1,0,6.45,4.67,4.67,0,0,1-3.37,1.24H25.62v5.79H23.41V38.47h5.52A4.72,4.72,0,0,1,32.3,39.71Zm-1.62,5a2.65,2.65,0,0,0,0-3.6,2.65,2.65,0,0,0-1.9-.66H25.62V45.4h3.17A2.65,2.65,0,0,0,30.68,44.74Z"/><path class="cls-1" d="M25.94,53.51H23.08V38.15h5.85a5,5,0,0,1,3.59,1.33h0a5,5,0,0,1,0,6.91,5,5,0,0,1-3.59,1.33h-3Zm-2.21-.64h1.56V47.08h3.64a4.41,4.41,0,0,0,3.15-1.15,4.34,4.34,0,0,0,0-6h0a4.41,4.41,0,0,0-3.15-1.15h-5.2Zm5.06-7.15h-3.5V40.16h3.5a3,3,0,0,1,2.12.74,2.7,2.7,0,0,1,.8,2,2.65,2.65,0,0,1-.81,2A3,3,0,0,1,28.79,45.72Zm-2.85-.64h2.85a2.31,2.31,0,0,0,1.67-.58,2,2,0,0,0,.61-1.56,2.06,2.06,0,0,0-.6-1.57,2.36,2.36,0,0,0-1.68-.57H25.94Z"/><path class="cls-1" d="M39.28,14.62a1.46,1.46,0,0,0-1.24.05c-.26.13-2.33,1.71-2.42,1.78l-.43.32-9.35,7.12c-1.61,1.23-2.13,2.07-2.13,3.46a3.39,3.39,0,0,0,1.06,2.53,3.48,3.48,0,0,0,2.47,1h.26a3.4,3.4,0,0,0,2.33-1.1c.09-.09,10.12-12.87,10.28-13.27A1.53,1.53,0,0,0,39.28,14.62Z"/></g></g></svg>