<svg xmlns="http://www.w3.org/2000/svg" viewBox="0 0 62.45 62.41"><defs><style>.cls-1{fill:#7f7f7f;}</style></defs><g id="Слой_2" data-name="Слой 2"><g id="Слой_1-2" data-name="Слой 1"><path class="cls-1" d="M30.24,0a16.32,16.32,0,0,0-3.92.82,20,20,0,0,0-3.38,1.67A18.41,18.41,0,0,0,15.2,14.3a16.6,16.6,0,0,0-.38,4.05,19.09,19.09,0,0,0,.11,2.52,19.71,19.71,0,0,0,3.84,9.48A22.94,22.94,0,0,0,22,33.56a15.67,15.67,0,0,0,6.74,3,18.38,18.38,0,0,0,4.33.09c6.24-.78,11.43-5.29,13.65-11.83A20.25,20.25,0,0,0,45.32,8.72C42.12,3,36.3-.38,30.24,0Z"/><path class="cls-1" d="M19,39.39c-3.88,2.53-9.71,6.17-13.19,8.24-.63.38-1.41.88-1.73,1.11A14.65,14.65,0,0,0,1.83,51,8.82,8.82,0,0,0,.57,59.46a5.38,5.38,0,0,0,2.25,2.75l.43.2h9.32c5.13,0,11,0,13.08,0s10.46,0,18.65,0,15,0,15.17,0a3.13,3.13,0,0,0,1.64-1,5.47,5.47,0,0,0,1.33-3.67,11.74,11.74,0,0,0-4.73-9.4c-.83-.67-5-3.34-13.44-8.54l-2-1.23-1.85,0-1.85,0-.32.25c-1.26,1-3.93,1.46-7.27,1.38a17.69,17.69,0,0,1-6.33-1.07,1.49,1.49,0,0,1-.63-.45l-.11-.18H20.3L19,39.39Z"/></g></g></svg>