<svg xmlns="http://www.w3.org/2000/svg" viewBox="0 0 93.09 93.08"><defs><style>.cls-1{fill:#7f7f7f;}</style></defs><g id="Слой_2" data-name="Слой 2"><g id="Слой_1-2" data-name="Слой 1"><path class="cls-1" d="M79.46,32.68A10.8,10.8,0,0,1,84.1,19.07,46,46,0,0,0,73.58,8.66,10.82,10.82,0,0,1,53.67.55,46.47,46.47,0,0,0,38.88.64,10.82,10.82,0,0,1,19.06,9,46.48,46.48,0,0,0,8.67,19.5,10.82,10.82,0,0,1,.55,39.41a46.24,46.24,0,0,0,.09,14.8A10.82,10.82,0,0,1,9,74,46.57,46.57,0,0,0,19.5,84.43a10.83,10.83,0,0,1,19.92,8.1,46.47,46.47,0,0,0,14.79-.08A10.83,10.83,0,0,1,74,84.1,46.48,46.48,0,0,0,84.42,73.58a10.82,10.82,0,0,1,8.12-19.91,46.53,46.53,0,0,0-.09-14.8A10.81,10.81,0,0,1,79.46,32.68ZM46.54,69.94A23.4,23.4,0,1,1,70,46.54,23.4,23.4,0,0,1,46.54,69.94Z"/></g></g></svg>