<svg xmlns="http://www.w3.org/2000/svg" viewBox="0 0 105.64 105.64"><defs><style>.cls-1{fill:#fff;}</style></defs><g id="Слой_2" data-name="Слой 2"><g id="Слой_1-2" data-name="Слой 1"><path d="M52.82,9.6A43.22,43.22,0,1,0,96,52.82,43.23,43.23,0,0,0,52.82,9.6Zm0,77.8A34.58,34.58,0,1,1,87.4,52.82,34.58,34.58,0,0,1,52.82,87.4Z"/><path d="M52.82,28.81a24,24,0,1,0,24,24A24,24,0,0,0,52.82,28.81Zm0,38.42A14.41,14.41,0,1,1,67.23,52.82,14.41,14.41,0,0,1,52.82,67.23Z"/><path d="M52.82,28.81a24.49,24.49,0,0,1,4.4.44V0h-8.8V29.25A24.49,24.49,0,0,1,52.82,28.81Z"/><path d="M52.82,76.83a24.49,24.49,0,0,1-4.4-.44v29.25h8.8V76.39A24.49,24.49,0,0,1,52.82,76.83Z"/><path d="M76.39,48.42a22.22,22.22,0,0,1,0,8.8h29.25v-8.8Z"/><path d="M28.81,52.82a23.61,23.61,0,0,1,.45-4.4H0v8.8H29.26A23.61,23.61,0,0,1,28.81,52.82Z"/><path class="cls-1" d="M52.82,67.23A14.41,14.41,0,1,1,67.23,52.82,14.41,14.41,0,0,1,52.82,67.23Z"/></g></g></svg>