<svg xmlns="http://www.w3.org/2000/svg" viewBox="0 0 32.9 65.87"><defs><style>.cls-1{fill:blue;}</style></defs><g id="Слой_2" data-name="Слой 2"><g id="Слой_1-2" data-name="Слой 1"><path class="cls-1" d="M15.17.05a11.11,11.11,0,0,0-3.7,1.26A10,10,0,0,0,9.3,3.06,9.86,9.86,0,0,0,6.73,7.92l-.14.63,0,13.86,0,13.87L6,36.73A16.71,16.71,0,0,0,.47,45.4a13.52,13.52,0,0,0-.47,4,13.78,13.78,0,0,0,.4,3.8,16.49,16.49,0,0,0,27.42,8.11,16.89,16.89,0,0,0,3.91-5.79A16.35,16.35,0,0,0,27.06,36.9l-.74-.63,0-13.86,0-13.86-.14-.63a9.62,9.62,0,0,0-2.74-5,9.43,9.43,0,0,0-5-2.72A12.88,12.88,0,0,0,15.17.05Zm2.35,3.32a6.6,6.6,0,0,1,5.15,4.38c.37,1.08.35.41.35,16V38.08l.41.25a14.3,14.3,0,0,1,3.19,2.8,13,13,0,0,1-.9,17.6,12.72,12.72,0,0,1-3.44,2.47,13.15,13.15,0,0,1-16.08-20,15.07,15.07,0,0,1,3.32-2.89l.32-.19V23.71c0-15.55,0-14.88.36-16a6.57,6.57,0,0,1,7.32-4.38Z"/><path class="cls-1" d="M13.19,31.55l0,8.52-.55.22A10,10,0,0,0,7,46.38a8.19,8.19,0,0,0-.44,3,8.21,8.21,0,0,0,.44,3,9.56,9.56,0,0,0,2.43,3.94,9.74,9.74,0,0,0,5,2.74,12.43,12.43,0,0,0,3.85,0,9.53,9.53,0,0,0,5-2.74,9.48,9.48,0,0,0,2.44-3.94,8.42,8.42,0,0,0,.44-3,8.4,8.4,0,0,0-.44-3,10,10,0,0,0-5.6-6.09l-.54-.22,0-8.52,0-8.51H13.2v8.51Z"/></g></g></svg>